<svg xmlns="http://www.w3.org/2000/svg" viewBox="0 0 24 24"><path d="M9.091 4.963v9.488c2.787-3.015 4.651 1.403 2.875 4.04-1.1 1.414-2.002 1.985-3.487 2.718V4.962c.192-.194.38-.45.612 0m1.417 9.881c-.377 0-.922.032-1.158.48-.172.35-.259 1.173-.259 2.47v2.144c1.761-.087 4.023-4.822 1.417-5.094zM14.324 4.267v9.488c2.787-3.015 4.65 1.403 2.875 4.04-1.1 1.413-2.003 1.985-3.488 2.718V4.266c.192-.194.38-.45.613 0m1.417 9.881c-.377 0-.922.032-1.158.48-.173.35-.26 1.173-.26 2.47v2.144c1.762-.088 4.024-4.823 1.418-5.094z"/></svg>