<svg width="24" height="24" xmlns="http://www.w3.org/2000/svg"><path style="fill:#000;fill-opacity:1;stroke:none;stroke-width:.23116" d="m9.347 8.237 1.027-.254V3.667c.25-.14.339-.236.462 0v4.2l1.618-.4V3.14c.098-.055.38-.289.46 0l.002 4.198 1.616-.39V2.674c.186-.191.338-.176.463 0v4.161l1.056-.256c.495.224.096 1.343 0 2.159l-1.054.289v3.275l1.068-.229c.576-.088.469.853 0 2.273l-1.08.284.01 4.098c-.095.159-.195.304-.463 0v-3.99l-1.618.375v4.32c-.153.256-.307.009-.46 0l-.002-4.214-1.616.377V19.9c-.124.185-.282.17-.465 0v-4.195l-1.044.238c-.582-.075-.001-1.545 0-2.319l3.123-.72.002-3.249.462-.097v3.23l1.618-.375V9.178c-.867.206-2.831.675-3.698.88v3.22l-.463.107V10.16l-1.035.245c-.487.15.003-1.438.011-2.168z"/></svg>