<svg xmlns="http://www.w3.org/2000/svg" width="24" height="24"><path style="fill:#000;fill-opacity:1;stroke-width:.244409" d="M9.681 14.04V9.883l1.723-.488v4.134zm3.391-1.006-1.184.348V9.247l1.184-.339c.264-.148.278-1.83 0-1.717l-1.184.339V3.305c-.052-.26-.354-.179-.484 0v4.353l-1.723.508V4.058c-.096-.168-.265-.27-.457 0v4.264l-1.184.34c-.12.662-.19 1.287 0 1.722l1.184-.34v4.127l-1.184.338c-.108.572-.235 1.143 0 1.714l1.184-.339v4.2c.195.196.324.088.457 0v-4.35l1.723-.486v4.087c.246.182.383.128.484 0v-4.24l1.184-.341c.31-.543.146-1.658 0-1.72z"/></svg>