<svg viewBox="0 0 24 24" xmlns="http://www.w3.org/2000/svg"><path d="M6.142 8.067c.083 1.022.17 1.787.315 2.872.069.278.279.415.631.41.998-.022 1.675.34 2.461.851-.729.652-1.593.737-2.461.821-.352-.006-.563.131-.63.41-.155 1.035-.217 1.801-.316 2.903-.005.275.194.356.378.378a48.66 48.66 0 0 0 2.903-.347c.23-.071.331-.391.41-.852.016-.88.322-1.512.821-2.177.615.604.706 1.391.819 2.177.004.446.18.676.411.852 1.032.165 1.802.238 2.903.347.207-.042.353-.138.379-.379a53.235 53.235 0 0 0-.316-2.902c-.068-.279-.279-.416-.631-.41-.291-.002-.547-.057-.868-.083-.74-.166-1.116-.397-1.593-.769.331-.313.77-.469 1.092-.623a4.68 4.68 0 0 1 1.369-.198c.352.006.563-.131.631-.41.153-1.035.216-1.801.316-2.903.004-.41-.239-.38-.379-.378-1.036.091-1.808.19-2.903.347-.42.058-.337.434-.41.852-.139.889-.368 1.491-.82 2.177-.534-.644-.709-1.392-.82-2.177-.047-.533-.259-.783-.411-.852-.995-.163-1.746-.235-2.808-.347-.4-.038-.454.313-.473.41z"/></svg>