<?xml version="1.0" encoding="UTF-8" standalone="no"?>
<svg
   id="j"
   data-name="layer"
   version="1.1"
   viewBox="0 0 128 128"
   sodipodi:docname="Magpie Icon Darkmode.svg"
   inkscape:version="1.4.2 (ebf0e94, 2025-05-08)"
   width="128"
   height="128"
   xmlns:inkscape="http://www.inkscape.org/namespaces/inkscape"
   xmlns:sodipodi="http://sodipodi.sourceforge.net/DTD/sodipodi-0.dtd"
   xmlns:xlink="http://www.w3.org/1999/xlink"
   xmlns="http://www.w3.org/2000/svg"
   xmlns:svg="http://www.w3.org/2000/svg">
  <sodipodi:namedview
     id="namedview13"
     pagecolor="#252525"
     bordercolor="#111111"
     borderopacity="1"
     inkscape:showpageshadow="0"
     inkscape:pageopacity="0"
     inkscape:pagecheckerboard="1"
     inkscape:deskcolor="#d1d1d1"
     inkscape:zoom="1.6384"
     inkscape:cx="-68.664551"
     inkscape:cy="104.37012"
     inkscape:window-width="1130"
     inkscape:window-height="612"
     inkscape:window-x="-8"
     inkscape:window-y="-8"
     inkscape:window-maximized="1"
     inkscape:current-layer="j"
     showgrid="false" />
  <defs
     id="defs12">
    <linearGradient
       id="linearGradient11"
       inkscape:collect="always">
      <stop
         style="stop-color:#878787;stop-opacity:1;"
         offset="0"
         id="stop12" />
      <stop
         style="stop-color:#7c7c7c;stop-opacity:0;"
         offset="1"
         id="stop15" />
    </linearGradient>
    <linearGradient
       id="linearGradient5"
       inkscape:collect="always">
      <stop
         style="stop-color:#ffffff;stop-opacity:0.34722221;"
         offset="0"
         id="stop5" />
      <stop
         style="stop-color:#ffffff;stop-opacity:0;"
         offset="1"
         id="stop6" />
    </linearGradient>
    <linearGradient
       id="linearGradient18"
       inkscape:collect="always">
      <stop
         style="stop-color:#ffffff;stop-opacity:0.40972221;"
         offset="0"
         id="stop18" />
      <stop
         style="stop-color:#d8d8d8;stop-opacity:1;"
         offset="0.53061223"
         id="stop16" />
      <stop
         style="stop-color:#ffffff;stop-opacity:1"
         offset="1"
         id="stop19" />
    </linearGradient>
    <linearGradient
       id="linearGradient13"
       inkscape:collect="always">
      <stop
         style="stop-color:#b3b3b3;stop-opacity:0.38194445;"
         offset="0.00680272"
         id="stop13" />
      <stop
         style="stop-color:#ffffff;stop-opacity:0.61805558;"
         offset="0.22608143"
         id="stop10" />
      <stop
         style="stop-color:#dfdfdf;stop-opacity:0.6388889;"
         offset="0.64811486"
         id="stop11" />
      <stop
         style="stop-color:#494949;stop-opacity:0.1736111;"
         offset="1"
         id="stop14" />
    </linearGradient>
    <linearGradient
       inkscape:collect="always"
       xlink:href="#linearGradient18"
       id="linearGradient19"
       x1="191.65836"
       y1="127.53015"
       x2="251.04224"
       y2="260.16315"
       gradientUnits="userSpaceOnUse"
       gradientTransform="matrix(0.25,0,0,0.25,-1.2769544,0.60944564)" />
    <linearGradient
       inkscape:collect="always"
       xlink:href="#linearGradient13"
       id="linearGradient21"
       gradientUnits="userSpaceOnUse"
       x1="66.155785"
       y1="457.73019"
       x2="279.66278"
       y2="164.76144"
       gradientTransform="matrix(0.25,0,0,0.25,-1.2769544,0.60944564)" />
    <radialGradient
       inkscape:collect="always"
       xlink:href="#linearGradient5"
       id="radialGradient6"
       cx="125.29697"
       cy="-7.5528965"
       fx="125.29697"
       fy="-7.5528965"
       r="44.766815"
       gradientTransform="matrix(0.25420651,1.4360172,-1.2329413,0.2182576,62.977754,-158.22055)"
       gradientUnits="userSpaceOnUse" />
    <filter
       inkscape:collect="always"
       style="color-interpolation-filters:sRGB"
       id="filter6"
       x="-0.08728954"
       y="-0.17907625"
       width="1.1745791"
       height="1.3581525">
      <feGaussianBlur
         inkscape:collect="always"
         stdDeviation="3.2563956"
         id="feGaussianBlur6" />
    </filter>
    <radialGradient
       inkscape:collect="always"
       xlink:href="#linearGradient11"
       id="radialGradient15"
       cx="15.024764"
       cy="117.27107"
       fx="15.024764"
       fy="117.27107"
       r="8.378223"
       gradientTransform="matrix(0.83461549,0.550833,-2.6225896,3.9737161,309.17435,-354.17875)"
       gradientUnits="userSpaceOnUse" />
  </defs>
  <path
     class="cls-3"
     d="M 6.5303056,114.70551 C 19.045556,78.828446 46.579106,45.037256 81.621816,25.430026 c 2.83679,-1.46011 5.42328,2.46134 2.54477,4.17175 -31.70531,20.02441 -55.90146,52.56407 -66.33084,88.023954 -3.112684,10.37561 -14.073862,3.19166 -11.3054404,-2.92022 z"
     style="display:inline;mix-blend-mode:darken;fill:url(#linearGradient21);fill-opacity:0.829431;stroke-width:0.417175"
     id="path13"
     sodipodi:nodetypes="ccccc" />
  <path
     d="m 97.224609,6.7832031 c -44.63773,0 -85.521484,33.3736709 -85.521484,80.9316409 v 14.128906 c 14.09503,-30.954904 39.099899,-59.170623 69.917969,-76.414063 2.83679,-1.46011 5.423422,2.461465 2.544922,4.171875 -27.45969,17.342961 -49.267605,44.07972 -61.396485,73.964848 h 10.626953 c 24.19616,0 32.122797,-9.178286 37.128907,-14.601566 7.09197,-7.92633 13.22495,-16.686586 16.6875,-25.447266 0.83435,-2.08588 0.625121,-4.338802 -0.542969,-6.257812 L 84.125,53.130859 h 5.005859 c 2.66992,0 4.964573,-1.334596 6.257813,-3.503906 5.423288,-9.17785 12.515928,-19.607797 22.945308,-32.123047 L 118.5,17.210937 c 3.3374,-4.171759 0.41742,-10.4277339 -5.00586,-10.4277339 z"
     style="display:inline;fill:url(#linearGradient19);fill-opacity:0.929766;stroke-width:0.417175"
     id="path2"
     sodipodi:nodetypes="ssccccsccccscccss" />
  <path
     d="m 100.01563,42.154297 c 4.73399,-7.30337 10.61646,-15.408127 18.31835,-24.650391 L 118.5,17.210937 c 3.3374,-4.171758 0.41742,-10.4277339 -5.00586,-10.4277339 H 97.224609 c -25.999739,0 -50.726288,11.3229589 -66.841797,30.1757809 a 62.182343,62.182343 0 0 0 20.640625,10.802735 c 9.300765,-8.59605 19.577046,-16.165739 30.597657,-22.332032 2.83679,-1.46011 5.423422,2.461465 2.544922,4.171875 -9.058728,5.721302 -17.501555,12.464152 -25.185547,20.00586 a 62.182343,62.182343 0 0 0 10.048828,0.818359 62.182343,62.182343 0 0 0 30.986333,-8.271484 z"
     style="stroke-width:1.14472;fill:url(#radialGradient6);filter:url(#filter6)"
     id="path5" />
  <path
     d="m 22.84375,103.33398 c -3.057523,-2.02798 -6.551234,-3.09896 -10.111328,-3.0996 -0.09766,5.3e-4 -0.195323,0.002 -0.292969,0.004 -2.234145,4.76396 -4.2089685,9.59566 -5.908203,14.4668 -2.7684216,6.11188 8.192004,13.29553 11.304687,2.91992 1.419513,-4.82634 3.094015,-9.59706 5.007813,-14.29102 z"
     style="fill:url(#radialGradient15)"
     id="path10"
     sodipodi:nodetypes="ccccccc" />
</svg>
