<svg width="256" height="256" version="1.1" viewBox="0 0 32 32" xmlns="http://www.w3.org/2000/svg">
	<g transform="translate(14.271 15.229)">
		<path d="m3.6538 13.964c-.4201-.17895-.54996-.39885-.54996-.93132 0-.42948.46822-.88657.90815-.88657.99942 0 2.4146-.53167 3.2207-1.21.61442-.517 1.3121-1.6746 1.686-2.7974.43516-1.3067.95056-1.668 1.6651-1.1675.63936.44783.55543 1.241-.31403 2.9675l-.43083.85551.41364-.08496c1.1341-.23295 2.0257-.96131 2.5177-2.0568.19237-.4283.2557-.83137.2563-1.6314.001125-1.4311-.36286-2.6041-1.1207-3.6123-.31535-.41951-.59624-.76275-.62419-.76275-.02795 0-.30081.19082-.60634.42404-.30554.23322-1.1023.72541-1.7705 1.0938-2.4993 1.3776-3.069 2.5707-2.0803 4.3567.32096.57984.33013.63821.15112.96206-.10481.18962-.34008.42869-.52282.53126-1.0936.61384-2.3263-1.6683-1.9697-3.6468.2966-1.6457 1.1302-2.5914 3.5555-4.0335 1.0398-.61826 1.6364-1.0676 2.0335-1.5312.70725-.8259 1.1204-.87556 1.8957-.22782 2.7135 2.2671 3.8195 6.2456 2.5135 9.0414-1.0288 2.2022-3.707 3.6169-5.7422 3.0332-.38611-.11074-.49432-.07598-1.1717.37634-1.1862.79212-3.1513 1.2634-3.9138.93855z" style="fill:#3b5229;stroke-width:.125"/>
		<path d="m.30827 14.009c-2.0718-.2186-4.3273-1.0482-6.0728-2.2335-1.0278-.69798-2.3692-1.9755-3.1425-2.9929-.80967-1.0652-1.9102-3.3094-2.2273-4.5422-.82991-3.2256-.51913-6.3442.92498-9.282.78859-1.6042 1.5873-2.7011 2.7993-3.8445 5.1602-4.8679 13.118-4.8679 18.278 0 .47875.45163 1.1524 1.192 1.4969 1.6453.80968 1.0652 1.9102 3.3094 2.2273 4.5422.32626 1.2681.54819 3.3288.43778 4.065l-.087709.58489-.2004-.30897c-.11022-.16993-.54327-.70445-.96232-1.1878-.69099-.79702-.77691-.95995-.92286-1.75-.25982-1.4064-.072794-1.3087-2.5029-1.3087h-2.1163l.026994 1.6374.026994 1.6374-1.875 1.0718-.07296-2.0266c-.040129-1.1146-.11376-2.0926-.16363-2.1733-.06659-.10774-1.2516-.1467-4.4622-.1467-4.0458 0-4.3782.016299-4.4614.21875-.11716.28532-.11716 6.0272 0 6.3125.082307.20044.36245.21875 3.3463.21875h3.2565l-.25409.49806c-.13975.27393-.29804.70987-.35176.96875l-.097666.47069-5.5343.125.40588 1.2505c.80693 2.4861 2.0738 4.2752 3.2343 4.5676l.53002.13353.00343.99296c.00318.9206-.015045.99175-.25.97633-.13938-.0091-.69579-.0633-1.2365-.12035zm-3.2096-3.6443c-.4558-.87401-1.0916-2.585-1.3702-3.6875l-.13426-.53125h-3.8685l.33085.53125c1.0484 1.6834 2.7216 3.2352 4.4449 4.1222.5032.25901.94976.47107.99237.47124.042608.000125-.13521-.40751-.39515-.90595zm-1.9323-9.5938v-3.375h-4.2954l-.22095.96875c-.29512 1.294-.29512 3.5185 0 4.8125l.22095.96875h4.2954zm.48922-5.5312c.59772-2.1285.83553-2.8134 1.3178-3.7954.31692-.64533.54624-1.1726.50959-1.1717-.15162.0036-1.5255.74922-2.1755 1.1807-.88739.58902-2.2997 1.9974-2.8807 2.8727-.76169 1.1475-.8553 1.07 1.2926 1.07 1.4071 0 1.9035-.040063 1.9362-.15625zm10.142 0c-.85171-2.7296-1.4452-3.9534-2.3834-4.9143-1.1548-1.1829-2.1732-1.1858-3.3493-.009694-.95312.95312-1.5404 2.156-2.4041 4.924-.038324.12282.83201.15625 4.0684.15625s4.1067-.033426 4.0684-.15625zm5.7604-.033737c-.31819-.82918-1.905-2.6391-3.1049-3.5415-.56907-.42796-2.282-1.3911-2.4772-1.3929-.036148-.0003375.20088.54783.52672 1.2181.32585.67031.73962 1.7531.91949 2.4062.17987.65312.3489 1.2578.3756 1.3438.036046.11598.53625.15625 1.9409.15625 1.6417 0 1.8826-.02516 1.8194-.18999z" style="fill:#1a273d;stroke-width:.125"/>
	</g>
</svg>
