<svg width="256" height="256" viewBox="0 0 32 32" xmlns="http://www.w3.org/2000/svg"><path d="M3.654 13.964c-.42-.179-.55-.399-.55-.931 0-.43.468-.887.908-.887 1 0 2.415-.532 3.22-1.21.615-.517 1.313-1.674 1.687-2.797.435-1.307.95-1.668 1.665-1.168.64.448.555 1.241-.314 2.968l-.431.855.414-.085c1.134-.233 2.025-.961 2.517-2.057.193-.428.256-.83.257-1.63 0-1.432-.363-2.605-1.121-3.613-.315-.42-.596-.763-.624-.763-.028 0-.301.19-.607.424-.305.233-1.102.725-1.77 1.094-2.5 1.377-3.07 2.57-2.08 4.357.32.58.33.638.15.962a1.61 1.61 0 0 1-.522.53c-1.094.615-2.326-1.667-1.97-3.646.297-1.646 1.13-2.591 3.556-4.033 1.04-.619 1.636-1.068 2.033-1.532.707-.826 1.12-.875 1.896-.227 2.713 2.267 3.82 6.245 2.513 9.04-1.028 2.203-3.707 3.618-5.742 3.034-.386-.11-.494-.076-1.172.376-1.186.793-3.15 1.264-3.913.939z" style="fill:#3b5229;stroke-width:.125" transform="translate(14.271 15.229)"/><path d="M.308 14.009c-2.072-.219-4.327-1.048-6.073-2.233-1.027-.698-2.369-1.976-3.142-2.993-.81-1.066-1.91-3.31-2.227-4.543-.83-3.225-.52-6.344.925-9.282.788-1.604 1.587-2.7 2.799-3.844a13.264 13.264 0 0 1 18.278 0 16.427 16.427 0 0 1 1.497 1.645c.81 1.065 1.91 3.31 2.227 4.542.326 1.269.548 3.33.438 4.065l-.088.585-.2-.309c-.11-.17-.543-.704-.962-1.187-.691-.797-.777-.96-.923-1.75-.26-1.407-.073-1.31-2.503-1.31H8.237l.027 1.638.027 1.638-1.875 1.071-.073-2.026C6.303-1.4 6.23-2.377 6.18-2.457c-.067-.108-1.252-.147-4.462-.147-4.046 0-4.379.016-4.462.219-.117.285-.117 6.027 0 6.312.083.2.363.219 3.347.219h3.256l-.254.498c-.14.274-.298.71-.352.969l-.097.47-5.535.125.406 1.25c.807 2.487 2.074 4.276 3.234 4.568l.53.134.004.993c.003.92-.015.992-.25.976-.14-.009-.696-.063-1.237-.12zm-3.21-3.644c-.455-.874-1.09-2.585-1.37-3.688l-.134-.531h-3.868l.33.531c1.049 1.684 2.722 3.235 4.445 4.122.504.26.95.471.993.472.042 0-.135-.408-.395-.906zM-4.833.77v-3.375h-4.295l-.221.969c-.295 1.294-.295 3.518 0 4.812l.221.969h4.295zm.49-5.531c.597-2.129.835-2.814 1.317-3.796.317-.645.547-1.172.51-1.171-.152.003-1.526.749-2.176 1.18-.887.59-2.3 1.998-2.88 2.873-.762 1.148-.856 1.07 1.292 1.07 1.407 0 1.904-.04 1.937-.156zm10.142 0c-.852-2.73-1.446-3.954-2.384-4.915-1.155-1.182-2.173-1.185-3.35-.01-.952.954-1.54 2.157-2.403 4.925-.039.123.832.156 4.068.156s4.107-.033 4.069-.156zm5.76-.034c-.318-.83-1.905-2.64-3.105-3.542-.569-.427-2.282-1.39-2.477-1.392-.036 0 .2.547.527 1.218.325.67.74 1.753.92 2.406.179.653.348 1.258.375 1.344.036.116.536.156 1.94.156 1.642 0 1.883-.025 1.82-.19z" style="fill:#1a273d;stroke-width:.125" transform="translate(14.271 15.229)"/></svg>